<svg xmlns="http://www.w3.org/2000/svg" xmlns:xlink="http://www.w3.org/1999/xlink" width="48" height="48" version="1.1"><defs><linearGradient id="color-1" x1="14.977" x2="49.644" y1="12.663" y2="50.588" gradientUnits="userSpaceOnUse"><stop offset="0" stop-color="#000" stop-opacity=".36"/><stop offset="1" stop-color="#000" stop-opacity="0"/></linearGradient><filter id="dropshadow-base"><feColorMatrix type="matrix" values="0 0 0 0 0 0 0 0 0 0 0 0 0 0 0 0 0 0 .8 0"/><feOffset dx="0" dy="1"/><feGaussianBlur stdDeviation="1"/><feComposite in="SourceGraphic"/></filter><filter id="dropshadow-banner" width="120%" height="130%" x="-10%" y="-10%"><feColorMatrix type="matrix" values="0 0 0 0 0 0 0 0 0 0 0 0 0 0 0 0 0 0 .4 0"/><feOffset dx="0" dy="1"/><feGaussianBlur stdDeviation=".5"/><feComposite in="SourceGraphic"/></filter></defs><g fill="none" fill-rule="nonzero" stroke="none" stroke-dashoffset="0" stroke-linecap="butt" stroke-linejoin="miter" stroke-miterlimit="10" stroke-width="none" font-family="none" font-size="none" font-weight="none" text-anchor="none" style="mix-blend-mode:normal"><path id="base 1 5" fill="#2da832" stroke-width="1" d="M2,24c0,-12.15026 9.84974,-22 22,-22c12.15026,0 22,9.84974 22,22c0,12.15026 -9.84974,22 -22,22c-12.15026,0 -22,-9.84974 -22,-22z"/><path fill="url(#color-1)" stroke-width="1" d="M18.23355,19.17663l0.81414,0l-0.81414,-0.81414c0,-1.61605 0.78971,-3.04893 1.9987,-3.9404l-1.06651,-1.06651c-0.15875,-0.15875 -0.15875,-0.41521 0,-0.57396c0.15875,-0.15875 0.41521,-0.15875 0.57396,0l1.20899,1.20899c0.65538,-0.32565 1.3881,-0.5129 2.16967,-0.5129c0.7775,0 1.50615,0.18725 2.15746,0.50884l1.20492,-1.20084c0.15875,-0.15875 0.41521,-0.15875 0.57396,0l17.90837,17.90837c-1.9495,6.11023 -6.49645,11.06059 -12.34266,13.55287l-12.40137,-12.40137l0,0c-0.00097,-0.00097 -0.00194,-0.00194 -0.0029,-0.00291l-4.88189,-4.88189c0,0 0,0 0,0c-0.22083,-0.22083 -0.3572,-0.52613 -0.3572,-0.864v-5.69893c0,-0.67573 0.54547,-1.2212 1.2212,-1.2212c0.33787,0 0.64316,0.13637 0.864,0.3572l1.17132,1.17132z"/><path fill="none" stroke-width="0" d="M18.23357,27.31796c0,0.44777 0.36636,0.81413 0.81413,0.81413h0.81413v2.84947c0,0.67573 0.54547,1.2212 1.2212,1.2212c0.67573,0 1.2212,-0.54547 1.2212,-1.2212v-2.84947h1.62827v2.84947c0,0.67573 0.54547,1.2212 1.2212,1.2212c0.67573,0 1.2212,-0.54547 1.2212,-1.2212v-2.84947h0.81413c0.44777,0 0.81413,-0.36636 0.81413,-0.81413v-8.14133h-9.7696zM16.19823,19.17663c-0.67573,0 -1.2212,0.54547 -1.2212,1.2212v5.69893c0,0.67573 0.54547,1.2212 1.2212,1.2212c0.67573,0 1.2212,-0.54547 1.2212,-1.2212v-5.69893c0,-0.67573 -0.54547,-1.2212 -1.2212,-1.2212zM30.0385,19.17663c-0.67573,0 -1.2212,0.54547 -1.2212,1.2212v5.69893c0,0.67573 0.54547,1.2212 1.2212,1.2212c0.67573,0 1.2212,-0.54547 1.2212,-1.2212v-5.69893c0,-0.67573 -0.54547,-1.2212 -1.2212,-1.2212zM25.99226,14.42209l1.06244,-1.06244c0.15876,-0.15876 0.15876,-0.41521 0,-0.57396c-0.15876,-0.15876 -0.41521,-0.15876 -0.57396,0l-1.20492,1.20085c-0.65131,-0.32158 -1.37996,-0.50883 -2.15745,-0.50883c-0.78157,0 -1.51429,0.18725 -2.16967,0.5129l-1.20899,-1.20899c-0.15876,-0.15876 -0.41521,-0.15876 -0.57396,0c-0.15876,0.15876 -0.15876,0.41521 0,0.57396l1.06651,1.06651c-1.20899,0.89148 -1.9987,2.32435 -1.9987,3.94041h9.7696c0,-1.62013 -0.79378,-3.053 -2.01091,-3.94041zM21.4901,16.73423h-0.81413v-0.81413h0.81413zM25.56077,16.73423h-0.81413v-0.81413h0.81413z"/><path fill="#fff" stroke-width="0" d="M18.23357,19.17663h9.7696v8.14133c0,0.44777 -0.36636,0.81413 -0.81413,0.81413h-0.81413v2.84947c0,0.67573 -0.54547,1.2212 -1.2212,1.2212c-0.67573,0 -1.2212,-0.54547 -1.2212,-1.2212v-2.84947h-1.62827v2.84947c0,0.67573 -0.54547,1.2212 -1.2212,1.2212c-0.67573,0 -1.2212,-0.54547 -1.2212,-1.2212v-2.84947h-0.81413c-0.44777,0 -0.81413,-0.36636 -0.81413,-0.81413zM17.41943,20.39783v5.69893c0,0.67573 -0.54547,1.2212 -1.2212,1.2212c-0.67573,0 -1.2212,-0.54547 -1.2212,-1.2212v-5.69893c0,-0.67573 0.54547,-1.2212 1.2212,-1.2212c0.67573,0 1.2212,0.54547 1.2212,1.2212zM31.2597,20.39783v5.69893c0,0.67573 -0.54547,1.2212 -1.2212,1.2212c-0.67573,0 -1.2212,-0.54547 -1.2212,-1.2212v-5.69893c0,-0.67573 0.54547,-1.2212 1.2212,-1.2212c0.67573,0 1.2212,0.54547 1.2212,1.2212zM28.00317,18.3625h-9.7696c0,-1.61605 0.78971,-3.04893 1.9987,-3.94041l-1.06651,-1.06651c-0.15876,-0.15876 -0.15876,-0.41521 0,-0.57396c0.15876,-0.15876 0.41521,-0.15876 0.57396,0l1.20899,1.20899c0.65538,-0.32565 1.3881,-0.5129 2.16967,-0.5129c0.7775,0 1.50615,0.18725 2.15745,0.50883l1.20492,-1.20085c0.15876,-0.15876 0.41521,-0.15876 0.57396,0c0.15876,0.15876 0.15876,0.41521 0,0.57396l-1.06244,1.06244c1.21713,0.88741 2.01091,2.32028 2.01091,3.94041zM21.4901,15.92009h-0.81413v0.81413h0.81413zM25.56077,15.92009h-0.81413v0.81413h0.81413z"/><path id="base 1 1 1" fill="none" stroke-width="1" d="M2,24c0,-12.15026 9.84974,-22 22,-22c12.15026,0 22,9.84974 22,22c0,12.15026 -9.84974,22 -22,22c-12.15026,0 -22,-9.84974 -22,-22z"/><path id="banner 1" fill="#404041" stroke-width="1" d="M16,36v-12h30v12z" filter="url(#dropshadow-banner)"/><text x="31" y="33" fill="#fff" stroke-width="1" font-family="sans-serif" font-size="8" font-weight="bold" text-anchor="middle">DEV</text><rect width="44" height="22" x="2" y="2" fill="none" stroke-width="1"/><path fill="none" stroke-width="1" d="M2,24v-22h44v22z"/><path fill="none" stroke-width="1" d="M2,24v-22h44v22z"/><path fill="none" stroke-width="1" d="M2,24v-22h44v22z"/><path fill="none" stroke-width="1" d="M2,24v-22h44v22z"/></g></svg>